<svg xmlns="http://www.w3.org/2000/svg" version="1.1" xmlns:xlink="http://www.w3.org/1999/xlink" xmlns:svgjs="http://svgjs.dev/svgjs" viewBox="0 0 800 800"><defs><linearGradient x1="50%" y1="0%" x2="50%" y2="100%" id="ffflurry-grad" gradientTransform="rotate(270)"><stop stop-color="rgb(234, 246, 246)" stop-opacity="1" offset="0%"></stop><stop stop-color="rgb(102, 191, 191)" stop-opacity="1" offset="45%"></stop><stop stop-color="rgb(255, 0, 99)" stop-opacity="1" offset="100%"></stop></linearGradient></defs><rect width="100%" height="100%" fill="#eaf6f6"></rect><g fill="url(#ffflurry-grad)"><rect width="860" height="2" x="24" y="128" rx="1" transform="rotate(180, 454, 129)" opacity="0.71"></rect><rect width="643" height="2" x="103.5" y="37" rx="1" transform="rotate(180, 425, 38)" opacity="0.41"></rect><rect width="1100" height="2" x="-353" y="358" rx="1" transform="rotate(180, 197, 359)" opacity="0.84"></rect><rect width="447" height="2" x="366.5" y="730" rx="1" transform="rotate(180, 590, 731)" opacity="0.94"></rect><rect width="706" height="2" x="144" y="350" rx="1" transform="rotate(180, 497, 351)" opacity="0.93"></rect><rect width="469" height="2" x="496.5" y="88" rx="1" transform="rotate(180, 731, 89)" opacity="0.77"></rect><rect width="679" height="2" x="63.5" y="370" rx="1" transform="rotate(180, 403, 371)" opacity="0.14"></rect><rect width="558" height="2" x="-154" y="292" rx="1" transform="rotate(180, 125, 293)" opacity="0.75"></rect><rect width="491" height="2" x="416.5" y="47" rx="1" transform="rotate(180, 662, 48)" opacity="0.78"></rect><rect width="233" height="2" x="489.5" y="395" rx="1" transform="rotate(180, 606, 396)" opacity="0.29"></rect><rect width="57" height="2" x="486.5" y="696" rx="1" transform="rotate(180, 515, 697)" opacity="0.86"></rect><rect width="189" height="2" x="593.5" y="706" rx="1" transform="rotate(180, 688, 707)" opacity="0.28"></rect><rect width="614" height="2" x="-245" y="730" rx="1" transform="rotate(180, 62, 731)" opacity="0.22"></rect><rect width="104" height="2" x="114" y="573" rx="1" transform="rotate(180, 166, 574)" opacity="0.37"></rect><rect width="647" height="2" x="99.5" y="479" rx="1" transform="rotate(180, 423, 480)" opacity="0.46"></rect><rect width="763" height="2" x="-322.5" y="206" rx="1" transform="rotate(180, 59, 207)" opacity="0.44"></rect><rect width="461" height="2" x="-35.5" y="102" rx="1" transform="rotate(180, 195, 103)" opacity="0.68"></rect><rect width="439" height="2" x="122.5" y="289" rx="1" transform="rotate(180, 342, 290)" opacity="0.98"></rect><rect width="166" height="2" x="379" y="768" rx="1" transform="rotate(180, 462, 769)" opacity="0.09"></rect><rect width="488" height="2" x="-26" y="239" rx="1" transform="rotate(180, 218, 240)" opacity="0.84"></rect><rect width="967" height="2" x="192.5" y="229" rx="1" transform="rotate(180, 676, 230)" opacity="0.22"></rect><rect width="255" height="2" x="160.5" y="38" rx="1" transform="rotate(180, 288, 39)" opacity="0.38"></rect><rect width="145" height="2" x="278.5" y="109" rx="1" transform="rotate(180, 351, 110)" opacity="0.65"></rect><rect width="348" height="2" x="207" y="589" rx="1" transform="rotate(180, 381, 590)" opacity="0.89"></rect><rect width="800" height="2" x="356" y="177" rx="1" transform="rotate(180, 756, 178)" opacity="0.95"></rect><rect width="181" height="2" x="19.5" y="126" rx="1" transform="rotate(180, 110, 127)" opacity="0.11"></rect><rect width="180" height="2" x="464" y="194" rx="1" transform="rotate(180, 554, 195)" opacity="0.47"></rect><rect width="208" height="2" x="39" y="30" rx="1" transform="rotate(180, 143, 31)" opacity="0.81"></rect><rect width="306" height="2" x="125" y="647" rx="1" transform="rotate(180, 278, 648)" opacity="0.99"></rect><rect width="89" height="2" x="77.5" y="471" rx="1" transform="rotate(180, 122, 472)" opacity="0.66"></rect><rect width="373" height="2" x="-144.5" y="320" rx="1" transform="rotate(180, 42, 321)" opacity="0.71"></rect><rect width="1003" height="2" x="234.5" y="633" rx="1" transform="rotate(180, 736, 634)" opacity="0.19"></rect><rect width="918" height="2" x="292" y="525" rx="1" transform="rotate(180, 751, 526)" opacity="0.18"></rect><rect width="678" height="2" x="-292" y="423" rx="1" transform="rotate(180, 47, 424)" opacity="0.68"></rect><rect width="694" height="2" x="-69" y="458" rx="1" transform="rotate(180, 278, 459)" opacity="0.21"></rect><rect width="220" height="2" x="140" y="146" rx="1" transform="rotate(180, 250, 147)" opacity="0.22"></rect><rect width="79" height="2" x="201.5" y="759" rx="1" transform="rotate(180, 241, 760)" opacity="0.34"></rect><rect width="227" height="2" x="202.5" y="199" rx="1" transform="rotate(180, 316, 200)" opacity="0.73"></rect><rect width="111" height="2" x="499.5" y="481" rx="1" transform="rotate(180, 555, 482)" opacity="0.32"></rect><rect width="89" height="2" x="5.5" y="587" rx="1" transform="rotate(180, 50, 588)" opacity="0.51"></rect><rect width="72" height="2" x="696" y="394" rx="1" transform="rotate(180, 732, 395)" opacity="0.77"></rect><rect width="914" height="2" x="-421" y="67" rx="1" transform="rotate(180, 36, 68)" opacity="0.82"></rect><rect width="518" height="2" x="-93" y="701" rx="1" transform="rotate(180, 166, 702)" opacity="0.81"></rect><rect width="604" height="2" x="41" y="744" rx="1" transform="rotate(180, 343, 745)" opacity="0.69"></rect><rect width="585" height="2" x="365.5" y="771" rx="1" transform="rotate(180, 658, 772)" opacity="0.58"></rect><rect width="966" height="2" x="179" y="494" rx="1" transform="rotate(180, 662, 495)" opacity="0.36"></rect><rect width="443" height="2" x="383.5" y="606" rx="1" transform="rotate(180, 605, 607)" opacity="0.43"></rect><rect width="876" height="2" x="-169" y="540" rx="1" transform="rotate(180, 269, 541)" opacity="0.67"></rect><rect width="496" height="2" x="51" y="376" rx="1" transform="rotate(180, 299, 377)" opacity="0.54"></rect><rect width="108" height="2" x="441" y="574" rx="1" transform="rotate(180, 495, 575)" opacity="0.46"></rect><rect width="1039" height="2" x="86.5" y="300" rx="1" transform="rotate(180, 606, 301)" opacity="0.09"></rect><rect width="351" height="2" x="582.5" y="296" rx="1" transform="rotate(180, 758, 297)" opacity="0.76"></rect><rect width="567" height="2" x="479.5" y="748" rx="1" transform="rotate(180, 763, 749)" opacity="0.31"></rect><rect width="689" height="2" x="72.5" y="685" rx="1" transform="rotate(180, 417, 686)" opacity="0.11"></rect><rect width="585" height="2" x="131.5" y="225" rx="1" transform="rotate(180, 424, 226)" opacity="0.91"></rect><rect width="68" height="2" x="515" y="63" rx="1" transform="rotate(180, 549, 64)" opacity="0.57"></rect></g></svg>