<svg xmlns="http://www.w3.org/2000/svg" version="1.1" xmlns:xlink="http://www.w3.org/1999/xlink" xmlns:svgjs="http://svgjs.dev/svgjs" viewBox="0 0 800 800" opacity="1"><defs><linearGradient x1="50%" y1="0%" x2="50%" y2="100%" id="hhhorizon-grad"><stop stop-color="hsl(0, 99%, 67%)" stop-opacity="1" offset="25%"></stop><stop stop-color="rgb(255, 0, 99)" stop-opacity="1" offset="100%"></stop></linearGradient><linearGradient x1="50%" y1="0%" x2="50%" y2="100%" id="hhhorizon-grad2"><stop stop-color="rgb(255, 0, 99)" stop-opacity="1" offset="0%"></stop><stop stop-color="hsl(0, 99%, 67%)" stop-opacity="1" offset="75%"></stop></linearGradient><clipPath id="SvgjsClipPath1052"><rect width="800" height="54" x="0" y="0"></rect><rect width="800" height="53" x="0" y="15"></rect><rect width="800" height="52" x="0" y="30"></rect><rect width="800" height="51" x="0" y="45"></rect><rect width="800" height="50" x="0" y="60"></rect><rect width="800" height="49" x="0" y="75"></rect><rect width="800" height="48" x="0" y="91"></rect><rect width="800" height="47" x="0" y="106"></rect><rect width="800" height="46" x="0" y="121"></rect><rect width="800" height="45" x="0" y="136"></rect><rect width="800" height="44" x="0" y="151"></rect><rect width="800" height="43" x="0" y="166"></rect><rect width="800" height="42" x="0" y="181"></rect><rect width="800" height="41" x="0" y="196"></rect><rect width="800" height="40" x="0" y="211"></rect><rect width="800" height="39" x="0" y="226"></rect><rect width="800" height="38" x="0" y="242"></rect><rect width="800" height="37" x="0" y="257"></rect><rect width="800" height="36" x="0" y="272"></rect><rect width="800" height="35" x="0" y="287"></rect><rect width="800" height="34" x="0" y="302"></rect><rect width="800" height="33" x="0" y="317"></rect><rect width="800" height="32" x="0" y="332"></rect><rect width="800" height="31" x="0" y="347"></rect><rect width="800" height="30" x="0" y="362"></rect><rect width="800" height="29" x="0" y="377"></rect><rect width="800" height="28" x="0" y="392"></rect><rect width="800" height="27" x="0" y="408"></rect><rect width="800" height="26" x="0" y="423"></rect><rect width="800" height="25" x="0" y="438"></rect><rect width="800" height="24" x="0" y="453"></rect><rect width="800" height="23" x="0" y="468"></rect><rect width="800" height="22" x="0" y="483"></rect><rect width="800" height="21" x="0" y="498"></rect><rect width="800" height="20" x="0" y="513"></rect><rect width="800" height="19" x="0" y="528"></rect><rect width="800" height="18" x="0" y="543"></rect><rect width="800" height="17" x="0" y="558"></rect><rect width="800" height="16" x="0" y="574"></rect><rect width="800" height="15" x="0" y="589"></rect><rect width="800" height="14" x="0" y="604"></rect><rect width="800" height="13" x="0" y="619"></rect><rect width="800" height="12" x="0" y="634"></rect><rect width="800" height="11" x="0" y="649"></rect><rect width="800" height="10" x="0" y="664"></rect><rect width="800" height="9" x="0" y="679"></rect><rect width="800" height="8" x="0" y="694"></rect><rect width="800" height="7" x="0" y="709"></rect><rect width="800" height="6" x="0" y="725"></rect><rect width="800" height="5" x="0" y="740"></rect><rect width="800" height="4" x="0" y="755"></rect><rect width="800" height="3" x="0" y="770"></rect><rect width="800" height="2" x="0" y="785"></rect><rect width="800" height="1" x="0" y="800"></rect></clipPath><clipPath><rect width="800" height="1" x="0" y="54"></rect><rect width="800" height="2" x="0" y="108"></rect><rect width="800" height="3" x="0" y="162"></rect><rect width="800" height="4" x="0" y="216"></rect><rect width="800" height="5" x="0" y="270"></rect><rect width="800" height="6" x="0" y="324"></rect><rect width="800" height="7" x="0" y="378"></rect><rect width="800" height="8" x="0" y="432"></rect><rect width="800" height="9" x="0" y="486"></rect><rect width="800" height="10" x="0" y="540"></rect><rect width="800" height="11" x="0" y="594"></rect><rect width="800" height="12" x="0" y="648"></rect><rect width="800" height="13" x="0" y="702"></rect><rect width="800" height="14" x="0" y="756"></rect><rect width="800" height="15" x="0" y="810"></rect></clipPath></defs><rect width="800" height="800" fill="url(#hhhorizon-grad)" clip-path="url(&quot;#SvgjsClipPath1052&quot;)"></rect></svg>